<svg id="Layer_1" data-name="Layer 1" xmlns="http://www.w3.org/2000/svg" xmlns:xlink="http://www.w3.org/1999/xlink" viewBox="0 0 122.37 82.54"><defs><style>.cls-1{fill:none;}.cls-2{clip-path:url(#clip-path);}</style><clipPath id="clip-path"><ellipse class="cls-1" cx="60.91" cy="41.27" rx="60.68" ry="40.3"/></clipPath></defs><path d="M14.51,32h5.12l2.94,6.46a17,17,0,0,1,1.12,3.24,19.85,19.85,0,0,1,1.12-3.24L27.57,32h5.49l2.63,6.46a25.67,25.67,0,0,1,1.12,3.24A22.89,22.89,0,0,1,38,38.51L41,32h5L39.15,46.9H34.36l-4.09-9.78L26.06,46.9H21.24Z"/><path d="M46.11,39.48c0-4.65,4.46-7.71,11.15-7.71,5.61,0,9.64,2.13,10.34,5.47H62.41c-.66-1.49-2.57-2.33-5.27-2.33-3.64,0-5.85,1.71-5.85,4.55S53.54,44,57.14,44c2.76,0,4.79-.91,5.4-2.38h5.09c-.79,3.32-5,5.52-10.58,5.52C50.32,47.15,46.11,44.19,46.11,39.48Z"/><path d="M69.77,32h9.34c4.51,0,7.24,1.57,7.24,4.13,0,1.59-1.09,2.75-3.12,3.34,2.21.48,3.39,1.63,3.39,3.32,0,2.63-2.67,4.1-7.51,4.1H69.77Zm4.91,2.86v3.24h3.91c1.76,0,2.73-.59,2.73-1.65s-.94-1.59-2.73-1.59Zm0,6v3.2h4.15c1.82,0,2.76-.55,2.76-1.65s-1-1.55-2.76-1.55Z"/><path d="M86.46,46.9l8-14.89h4.78l8,14.89H102l-1.57-3.14H93.19l-1.6,3.14ZM94.62,41H99l-1.6-3.18a9.17,9.17,0,0,1-.61-1.45,8.68,8.68,0,0,1-.61,1.45Z"/><g class="cls-2"><path d="M29.22,80.64h0c0-.56.68-1,1.51-1H213.17c.84,0,1.51.45,1.51,1h0c0,.55-.67,1-1.51,1H30.73C29.9,81.64,29.22,81.19,29.22,80.64Z"/><path d="M20.25,74.67h0c0-.55.67-1,1.51-1H204.2c.83,0,1.51.45,1.51,1h0c0,.56-.68,1-1.51,1H21.76C20.92,75.68,20.25,75.23,20.25,74.67Z"/><path d="M-142.63,68.71h0c0-.55.68-1,1.51-1H41.32c.84,0,1.51.45,1.51,1h0c0,.56-.67,1-1.51,1H-141.12C-141.95,69.72-142.63,69.27-142.63,68.71Z"/><path d="M15,62.75h0c0-.55.68-1,1.51-1H198.93c.84,0,1.51.45,1.51,1h0c0,.55-.67,1-1.51,1H16.49C15.66,63.75,15,63.31,15,62.75Z"/><path d="M-74.73,56.79h0c0-.55.67-1,1.51-1H109.22c.83,0,1.51.45,1.51,1h0c0,.55-.68,1-1.51,1H-73.22C-74.06,57.79-74.73,57.34-74.73,56.79Z"/><path d="M-15.65,50.83h0c0-.56.68-1,1.51-1H168.3c.84,0,1.51.45,1.51,1h0c0,.55-.67,1-1.51,1H-14.14C-15,51.83-15.65,51.38-15.65,50.83Z"/><path d="M113.13,44.87h0c0-.56.68-1,1.51-1h44.69c.83,0,1.51.45,1.51,1h0c0,.55-.68,1-1.51,1H114.64C113.81,45.87,113.13,45.42,113.13,44.87Z"/><line x1="151.86" y1="38.9" x2="110.04" y2="38.9"/><path d="M110,38.91h0c0-.56.68-1,1.51-1h38.8c.84,0,1.51.45,1.51,1h0c0,.56-.67,1-1.51,1h-38.8C110.72,39.91,110,39.46,110,38.91Z"/><path d="M106.55,32.94h0c0-.55.67-1,1.51-1h33.32c.83,0,1.51.45,1.51,1h0c0,.56-.68,1-1.51,1H108.06C107.22,34,106.55,33.5,106.55,32.94Z"/><path d="M-51.55,27h0c0-.55.68-1,1.51-1H132.4c.84,0,1.51.45,1.51,1h0c0,.56-.67,1-1.51,1H-50C-50.87,28-51.55,27.54-51.55,27Z"/><line x1="62.18" y1="21.02" x2="-123.29" y2="21.02"/><path d="M-123.29,21h0c0-.55.68-1,1.51-1H60.66c.84,0,1.52.45,1.52,1h0c0,.55-.68,1-1.52,1H-121.78C-122.61,22-123.29,21.57-123.29,21Z"/><line x1="251.62" y1="21.02" x2="66.16" y2="21.02"/><path d="M66.16,21h0c0-.55.67-1,1.51-1H250.11c.83,0,1.51.45,1.51,1h0c0,.55-.68,1-1.51,1H67.67C66.83,22,66.16,21.57,66.16,21Z"/><path d="M-88.83,15.06h0c0-.55.68-1,1.51-1H95.12c.83,0,1.51.44,1.51,1h0c0,.55-.68,1-1.51,1H-87.32C-88.15,16.06-88.83,15.61-88.83,15.06Z"/><path d="M33.51,9.1h0c0-.56.68-1,1.51-1H217.46c.84,0,1.51.45,1.51,1h0c0,.55-.67,1-1.51,1H35C34.19,10.1,33.51,9.65,33.51,9.1Z"/><line x1="98.02" y1="3.14" x2="-87.45" y2="3.14"/><path d="M-87.45,3.14h0c0-.56.68-1,1.51-1H96.51c.83,0,1.51.45,1.51,1h0c0,.55-.68,1-1.51,1H-85.94C-86.77,4.14-87.45,3.69-87.45,3.14Z"/><path d="M106.55,32.94h0c0-.55.67-1,1.51-1h33.32c.83,0,1.51.45,1.51,1h0c0,.56-.68,1-1.51,1H108.06C107.22,34,106.55,33.5,106.55,32.94Z"/><line x1="-41.61" y1="32.94" x2="6.1" y2="32.94"/><path d="M6.1,32.94h0c0,.56-.67,1-1.51,1H-40.09c-.84,0-1.51-.45-1.51-1h0c0-.55.67-1,1.51-1H4.59C5.43,31.94,6.1,32.39,6.1,32.94Z"/><line x1="-32.63" y1="38.9" x2="9.19" y2="38.9"/><path d="M9.19,38.9h0c0,.56-.68,1-1.51,1h-38.8c-.83,0-1.51-.45-1.51-1h0c0-.56.68-1,1.51-1H7.68C8.51,37.9,9.19,38.35,9.19,38.9Z"/><line x1="-23.66" y1="44.87" x2="12.69" y2="44.87"/><path d="M12.69,44.87h0c0,.55-.68,1-1.51,1H-22.15c-.83,0-1.51-.45-1.51-1h0c0-.56.68-1,1.51-1H11.18C12,43.86,12.69,44.31,12.69,44.87Z"/><path d="M48.86,68.71h0c0-.55.68-1,1.51-1H232.81c.84,0,1.51.45,1.51,1h0c0,.56-.67,1-1.51,1H50.37C49.54,69.72,48.86,69.27,48.86,68.71Z"/></g></svg>