<?xml version="1.0" encoding="utf-8"?>
<!-- Generator: Adobe Illustrator 25.4.3, SVG Export Plug-In . SVG Version: 6.00 Build 0)  -->
<svg version="1.1" id="Layer_1" xmlns="http://www.w3.org/2000/svg" xmlns:xlink="http://www.w3.org/1999/xlink" x="0px" y="0px"
	 viewBox="0 0 479 320" style="enable-background:new 0 0 479 320;" xml:space="preserve">
<style type="text/css">
	.st0{display:none;}
	.st1{display:inline;fill:#FFFFFF;}
	.st2{display:inline;}
	.st3{fill:none;stroke:#000000;stroke-width:8;stroke-miterlimit:10;}
	.st4{fill:#FFFFFF;stroke:#000000;stroke-width:8;stroke-miterlimit:10;}
</style>
<g>
	<path d="M287.3,182.65c-0.38,2.81-0.8,5.58-1.27,8.29c1.44-0.25,2.87-0.51,4.28-0.79l3.54-8.83
		C291.72,181.79,289.53,182.24,287.3,182.65z M287.3,182.65c-0.38,2.81-0.8,5.58-1.27,8.29c1.44-0.25,2.87-0.51,4.28-0.79l3.54-8.83
		C291.72,181.79,289.53,182.24,287.3,182.65z M287.3,182.65c-0.38,2.81-0.8,5.58-1.27,8.29c1.44-0.25,2.87-0.51,4.28-0.79l3.54-8.83
		C291.72,181.79,289.53,182.24,287.3,182.65z M287.3,182.65c-0.38,2.81-0.8,5.58-1.27,8.29c1.44-0.25,2.87-0.51,4.28-0.79l3.54-8.83
		C291.72,181.79,289.53,182.24,287.3,182.65z M471.22,14.9c-2.36-3.79-6.44-6.06-10.91-6.06h-97.23c-5.05,0-9.65,2.98-11.72,7.58
		l-0.03,0.07l-21.3,53.12l-3.43,8.54c1.94,2.52,3.77,5.14,5.48,7.83l3.6-8.98l23-57.36c0.8-1.7,2.52-2.8,4.4-2.8h97.23
		c1.71,0,3.22,0.84,4.12,2.29c0.91,1.45,0.99,3.17,0.24,4.7l-0.05,0.1l-116.86,272.8c-0.82,1.61-2.51,2.64-4.32,2.64h-77.39
		c-2.68,0-4.85-2.17-4.85-4.85v-30.83c0-0.69,0.14-1.36,0.42-1.99l2.45-6.12c-2.07,0.52-4.16,0.97-6.27,1.36
		c4.55-4.29,8.76-10.01,12.52-16.93l10.5-26.18c2.07-7.1,3.83-14.76,5.21-22.89c1.44-0.25,2.87-0.51,4.28-0.79l3.54-8.83
		c-2.13,0.47-4.32,0.92-6.55,1.33c0.4-2.99,0.76-6.03,1.06-9.12l-3.86,9.62l-3.45,8.62L272.93,212
		c-2.81,9.63-6.22,18.12-10.06,25.11l-8.17,20.36l-0.41,1.03c-0.28,0.62-0.5,1.26-0.67,1.9c-0.28,1.07-0.42,2.17-0.42,3.29v30.83
		c0,7.09,5.76,12.85,12.85,12.85h77.39c4.87,0,9.4-2.82,11.54-7.19l0.05-0.09L471.9,27.26C473.82,23.27,473.56,18.66,471.22,14.9z
		 M321.14,110.31c-2.1-0.81-4.26-1.6-6.49-2.34l-2.96,7.39c2.62,0.87,5.13,1.79,7.51,2.74l2.96-7.38
		C321.82,110.58,321.48,110.44,321.14,110.31z M287.3,182.65c-0.38,2.81-0.8,5.58-1.27,8.29c1.44-0.25,2.87-0.51,4.28-0.79
		l3.54-8.83C291.72,181.79,289.53,182.24,287.3,182.65z M287.3,182.65c-0.38,2.81-0.8,5.58-1.27,8.29c1.44-0.25,2.87-0.51,4.28-0.79
		l3.54-8.83C291.72,181.79,289.53,182.24,287.3,182.65z M287.3,182.65c-0.38,2.81-0.8,5.58-1.27,8.29c1.44-0.25,2.87-0.51,4.28-0.79
		l3.54-8.83C291.72,181.79,289.53,182.24,287.3,182.65z M287.3,182.65c-0.38,2.81-0.8,5.58-1.27,8.29c1.44-0.25,2.87-0.51,4.28-0.79
		l3.54-8.83C291.72,181.79,289.53,182.24,287.3,182.65z"/>
	<path d="M160.71,107.93c-2.26,0.76-4.46,1.55-6.6,2.38c-0.31,0.12-0.62,0.24-0.92,0.37l2.96,7.38c2.38-0.95,4.89-1.87,7.52-2.74
		L160.71,107.93z M221.78,260.51c-0.18-0.69-0.41-1.36-0.7-2.01l-0.35-0.87l-7.95-19.83c-4.15-7.36-7.8-16.48-10.77-26.87
		l-7.68-19.14l-3.45-8.62l-4.03-10.04c0.31,3.23,0.68,6.4,1.1,9.52c-2.19-0.41-4.33-0.84-6.42-1.3l3.54,8.82
		c1.37,0.28,2.75,0.53,4.15,0.77c1.32,7.76,2.98,15.1,4.94,21.93l11.21,27.93c3.71,6.67,7.84,12.19,12.3,16.34
		c-2.11-0.37-4.2-0.8-6.27-1.29l2.28,5.69l0.07,0.16c0.28,0.63,0.43,1.3,0.43,1.99v30.83c0,2.68-2.18,4.85-4.86,4.85h-77.39
		c-1.84,0-3.48-1-4.32-2.63L10.79,24.02l-0.09-0.19c-0.75-1.53-0.66-3.25,0.24-4.7c0.91-1.45,2.41-2.29,4.12-2.29h97.23
		c1.89,0,3.6,1.1,4.4,2.8l22.64,56.47l3.58,8.92c1.73-2.66,3.57-5.24,5.52-7.73l-3.4-8.49l-20.95-52.24l-0.07-0.15
		c-2.07-4.6-6.67-7.58-11.72-7.58H15.06c-4.47,0-8.55,2.27-10.91,6.06c-2.34,3.76-2.59,8.37-0.68,12.36l116.84,272.73l0.08,0.19
		c2.15,4.37,6.68,7.19,11.54,7.19h77.39c7.09,0,12.86-5.76,12.86-12.85v-30.83C222.18,262.61,222.05,261.54,221.78,260.51z"/>
	<g>
		<path d="M213.75,261.7l-0.07-0.16l-2.28-5.69c-43.83-10.31-77.85-46.33-85.22-91.22c-0.98-5.95-1.49-12.06-1.49-18.29
			c0-6.59,0.57-13.05,1.67-19.33c2.65-15.27,8.39-29.48,16.55-41.98l-3.58-8.92c-14.25,19.79-22.64,44.05-22.64,70.23
			c0,58.58,42.02,107.53,97.49,118.29v-0.94C214.18,263,214.03,262.33,213.75,261.7z M213.75,261.7l-0.07-0.16l-2.28-5.69
			c-43.83-10.31-77.85-46.33-85.22-91.22c-0.98-5.95-1.49-12.06-1.49-18.29c0-6.59,0.57-13.05,1.67-19.33
			c2.65-15.27,8.39-29.48,16.55-41.98l-3.58-8.92c-14.25,19.79-22.64,44.05-22.64,70.23c0,58.58,42.02,107.53,97.49,118.29v-0.94
			C214.18,263,214.03,262.33,213.75,261.7z M213.75,261.7l-0.07-0.16l-2.28-5.69c-43.83-10.31-77.85-46.33-85.22-91.22
			c-0.98-5.95-1.49-12.06-1.49-18.29c0-6.59,0.57-13.05,1.67-19.33c2.65-15.27,8.39-29.48,16.55-41.98l-3.58-8.92
			c-14.25,19.79-22.64,44.05-22.64,70.23c0,58.58,42.02,107.53,97.49,118.29v-0.94C214.18,263,214.03,262.33,213.75,261.7z
			 M213.75,261.7l-0.07-0.16l-2.28-5.69c-43.83-10.31-77.85-46.33-85.22-91.22c-0.98-5.95-1.49-12.06-1.49-18.29
			c0-6.59,0.57-13.05,1.67-19.33c2.65-15.27,8.39-29.48,16.55-41.98l-3.58-8.92c-14.25,19.79-22.64,44.05-22.64,70.23
			c0,58.58,42.02,107.53,97.49,118.29v-0.94C214.18,263,214.03,262.33,213.75,261.7z M213.75,261.7l-0.07-0.16l-2.28-5.69
			c-43.83-10.31-77.85-46.33-85.22-91.22c-0.98-5.95-1.49-12.06-1.49-18.29c0-6.59,0.57-13.05,1.67-19.33
			c2.65-15.27,8.39-29.48,16.55-41.98l-3.58-8.92c-14.25,19.79-22.64,44.05-22.64,70.23c0,58.58,42.02,107.53,97.49,118.29v-0.94
			C214.18,263,214.03,262.33,213.75,261.7z M357.68,145.61c-0.14-25.52-8.27-49.17-22-68.61c-1.78-2.54-3.67-5-5.65-7.39
			c-21.97-26.53-55.06-43.53-92.06-43.76c-0.11-0.01-0.23-0.01-0.34-0.01h-0.44c-36.94,0-70.05,16.71-92.16,42.97
			c-2,2.36-3.9,4.79-5.7,7.3c-14.25,19.79-22.64,44.05-22.64,70.23c0,58.58,42.02,107.53,97.49,118.29c2.64,0.52,5.31,0.94,8,1.28
			c4.92,0.61,9.93,0.93,15.01,0.93c5.43,0,10.77-0.36,16.01-1.07c2.7-0.35,5.37-0.8,8-1.33c54.98-11.16,96.49-59.87,96.49-118.1
			v-0.43C357.69,145.81,357.69,145.71,357.68,145.61z M264.07,255.58c-2.07,0.52-4.16,0.97-6.27,1.36c-1.03,0.2-2.06,0.38-3.1,0.53
			c-4.28,0.68-8.64,1.11-13.07,1.27c-1.47,0.07-2.95,0.1-4.44,0.1c-1.19,0-2.38-0.02-3.56-0.07c-4.37-0.12-8.67-0.51-12.9-1.14
			c-1.02-0.14-2.04-0.31-3.06-0.49c-2.11-0.37-4.2-0.8-6.27-1.29c-43.83-10.31-77.85-46.33-85.22-91.22
			c-0.98-5.95-1.49-12.06-1.49-18.29c0-6.59,0.57-13.05,1.67-19.33c2.65-15.27,8.39-29.48,16.55-41.98
			c1.73-2.66,3.57-5.24,5.52-7.73c16.57-21.27,40.61-36.44,68.13-41.56c5.56-1.04,11.26-1.66,17.07-1.83
			c1.18-0.05,2.37-0.07,3.56-0.07h0.44c0.09,0,0.19,0,0.28,0.01c1.25,0,2.49,0.03,3.72,0.09c5.88,0.22,11.65,0.9,17.27,2.01
			c27.44,5.38,51.33,20.77,67.7,42.2c1.94,2.52,3.77,5.14,5.48,7.83c7.66,11.98,13.1,25.51,15.76,40c1.17,6.37,1.8,12.92,1.84,19.61
			c0.01,0.11,0.01,0.21,0.01,0.32v0.43c0,6.59-0.57,13.04-1.67,19.32C340.38,209.69,307.04,245.02,264.07,255.58z M213.75,261.7
			l-0.07-0.16l-2.28-5.69c-43.83-10.31-77.85-46.33-85.22-91.22c-0.98-5.95-1.49-12.06-1.49-18.29c0-6.59,0.57-13.05,1.67-19.33
			c2.65-15.27,8.39-29.48,16.55-41.98l-3.58-8.92c-14.25,19.79-22.64,44.05-22.64,70.23c0,58.58,42.02,107.53,97.49,118.29v-0.94
			C214.18,263,214.03,262.33,213.75,261.7z M213.75,261.7l-0.07-0.16l-2.28-5.69c-43.83-10.31-77.85-46.33-85.22-91.22
			c-0.98-5.95-1.49-12.06-1.49-18.29c0-6.59,0.57-13.05,1.67-19.33c2.65-15.27,8.39-29.48,16.55-41.98l-3.58-8.92
			c-14.25,19.79-22.64,44.05-22.64,70.23c0,58.58,42.02,107.53,97.49,118.29v-0.94C214.18,263,214.03,262.33,213.75,261.7z
			 M213.75,261.7l-0.07-0.16l-2.28-5.69c-43.83-10.31-77.85-46.33-85.22-91.22c-0.98-5.95-1.49-12.06-1.49-18.29
			c0-6.59,0.57-13.05,1.67-19.33c2.65-15.27,8.39-29.48,16.55-41.98l-3.58-8.92c-14.25,19.79-22.64,44.05-22.64,70.23
			c0,58.58,42.02,107.53,97.49,118.29v-0.94C214.18,263,214.03,262.33,213.75,261.7z M213.75,261.7l-0.07-0.16l-2.28-5.69
			c-43.83-10.31-77.85-46.33-85.22-91.22c-0.98-5.95-1.49-12.06-1.49-18.29c0-6.59,0.57-13.05,1.67-19.33
			c2.65-15.27,8.39-29.48,16.55-41.98l-3.58-8.92c-14.25,19.79-22.64,44.05-22.64,70.23c0,58.58,42.02,107.53,97.49,118.29v-0.94
			C214.18,263,214.03,262.33,213.75,261.7z"/>
	</g>
	<path d="M287.3,109.16c-0.38-2.81-0.8-5.58-1.27-8.29c-4.98-29.19-14.72-52.43-27.13-64.92c-6.37-6.42-13.44-10-20.93-10.1
		c-0.11-0.01-0.23-0.01-0.34-0.01h-0.44c-7.38,0.14-14.35,3.64-20.63,9.9c-12.51,12.44-22.33,35.78-27.34,65.13
		c-0.47,2.71-0.89,5.48-1.27,8.29c-1.55,11.54-2.39,23.88-2.39,36.75c0,9.39,0.45,18.5,1.29,27.22c0.31,3.23,0.68,6.4,1.1,9.52
		c0.38,2.81,0.8,5.58,1.27,8.29c1.32,7.76,2.98,15.1,4.94,21.93c3.06,10.68,6.85,20.1,11.21,27.93c3.71,6.67,7.84,12.19,12.3,16.34
		c1.34,1.25,2.71,2.38,4.11,3.37c4.98,3.55,10.3,5.46,15.85,5.46c5.6,0,10.97-1.94,15.99-5.57c1.42-1.02,2.82-2.17,4.18-3.46
		c4.55-4.29,8.76-10.01,12.52-16.93c4.05-7.43,7.59-16.25,10.5-26.18c2.07-7.1,3.83-14.76,5.21-22.89c0.47-2.71,0.89-5.48,1.27-8.29
		c0.4-2.99,0.76-6.03,1.06-9.12c0.87-8.84,1.33-18.08,1.33-27.62C289.69,133.04,288.85,120.7,287.3,109.16z M262.87,237.11
		c-6.17,11.19-13.45,18.5-21.24,20.37c-1.32,0.33-2.65,0.49-4,0.49s-2.68-0.16-4-0.49c-7.64-1.84-14.78-8.88-20.85-19.68
		c-4.15-7.36-7.8-16.48-10.77-26.87c-1.68-5.84-3.14-12.08-4.35-18.65c-0.5-2.69-0.95-5.43-1.37-8.23
		c-1.76-11.97-2.73-24.83-2.73-38.14c0-13.32,0.97-26.18,2.73-38.15c0.42-2.79,0.87-5.53,1.37-8.22
		c6.53-35.41,20.2-61.41,35.97-65.21c1.28-0.32,2.57-0.48,3.88-0.49h0.12c0.09,0,0.19,0,0.28,0.01c1.25,0.01,2.49,0.18,3.72,0.48
		c15.76,3.8,29.43,29.8,35.96,65.21c0.5,2.69,0.95,5.43,1.36,8.22c1.77,11.97,2.74,24.83,2.74,38.15c0,13.31-0.97,26.17-2.74,38.14
		c-0.41,2.8-0.86,5.54-1.36,8.23c-1.29,6.97-2.85,13.58-4.66,19.72C270.12,221.63,266.71,230.12,262.87,237.11z"/>
	<path d="M196.29,184.05c-1.83-0.27-3.64-0.56-5.41-0.88l3.45,8.62c1.1,0.17,2.21,0.33,3.33,0.49
		C197.16,189.59,196.71,186.85,196.29,184.05z M187.95,182.65c-2.19-0.41-4.33-0.84-6.42-1.3l3.54,8.82
		c1.37,0.28,2.75,0.53,4.15,0.77C188.75,188.23,188.33,185.46,187.95,182.65z M196.29,184.05c-1.83-0.27-3.64-0.56-5.41-0.88
		l3.45,8.62c1.1,0.17,2.21,0.33,3.33,0.49C197.16,189.59,196.71,186.85,196.29,184.05z M196.29,184.05
		c-1.83-0.27-3.64-0.56-5.41-0.88l3.45,8.62c1.1,0.17,2.21,0.33,3.33,0.49C197.16,189.59,196.71,186.85,196.29,184.05z
		 M196.29,184.05c-1.83-0.27-3.64-0.56-5.41-0.88l3.45,8.62c1.1,0.17,2.21,0.33,3.33,0.49
		C197.16,189.59,196.71,186.85,196.29,184.05z M196.29,184.05c-1.83-0.27-3.64-0.56-5.41-0.88l3.45,8.62
		c1.1,0.17,2.21,0.33,3.33,0.49C197.16,189.59,196.71,186.85,196.29,184.05z M196.29,184.05c-1.83-0.27-3.64-0.56-5.41-0.88
		l3.45,8.62c1.1,0.17,2.21,0.33,3.33,0.49C197.16,189.59,196.71,186.85,196.29,184.05z M357.68,145.61
		c-0.09-6.95-3.47-13.59-9.84-19.63c-6-5.71-14.65-10.88-25.68-15.26c-0.34-0.14-0.68-0.28-1.02-0.41c-2.1-0.81-4.26-1.6-6.49-2.34
		c-8.71-2.92-18.34-5.31-28.62-7.1c-2.77-0.49-5.58-0.93-8.44-1.33c-11.43-1.6-23.54-2.51-35.96-2.67c-1.33-0.02-2.66-0.03-4-0.03
		c-1.34,0-2.67,0.01-4,0.03c-12.43,0.16-24.53,1.07-35.97,2.67c-2.86,0.4-5.67,0.84-8.44,1.33c-10.24,1.79-19.82,4.16-28.51,7.06
		c-2.26,0.76-4.46,1.55-6.6,2.38c-0.31,0.12-0.62,0.24-0.92,0.37c-11.76,4.66-20.81,10.2-26.83,16.33c-5.79,5.85-8.8,12.24-8.8,18.9
		c0,6.59,2.96,12.92,8.62,18.72c6.19,6.36,15.62,12.09,27.93,16.87c9.22,3.57,19.66,6.49,30.96,8.67c1.37,0.28,2.75,0.53,4.15,0.77
		c1.68,0.31,3.39,0.59,5.11,0.85c1.1,0.17,2.21,0.33,3.33,0.49c11.44,1.6,23.54,2.5,35.97,2.66c1.33,0.02,2.66,0.03,4,0.03
		c1.34,0,2.67-0.01,4-0.03c12.42-0.16,24.53-1.06,35.96-2.66c1.16-0.17,2.31-0.34,3.46-0.51c1.68-0.26,3.34-0.53,4.98-0.83
		c1.44-0.25,2.87-0.51,4.28-0.79c11.25-2.18,21.66-5.09,30.83-8.65c11.63-4.52,20.69-9.89,26.88-15.84
		c6.31-6.04,9.63-12.68,9.67-19.62v-0.13C357.69,145.81,357.69,145.71,357.68,145.61z M349.69,146.04
		c-0.13,13.53-21.18,27.68-55.84,35.28c-2.13,0.47-4.32,0.92-6.55,1.33c-0.92,0.18-1.85,0.34-2.8,0.5c-1.82,0.32-3.67,0.62-5.55,0.9
		c-11.39,1.7-23.89,2.72-37.32,2.89c-1.32,0.02-2.66,0.03-4,0.03c-1.34,0-2.68-0.01-4-0.03c-13.44-0.17-25.95-1.2-37.34-2.89
		c-1.83-0.27-3.64-0.56-5.41-0.88c-0.99-0.16-1.96-0.34-2.93-0.52c-2.19-0.41-4.33-0.84-6.42-1.3
		c-34.85-7.62-55.97-21.86-55.97-35.44c0-9.86,11.14-20.07,30.59-27.85c2.38-0.95,4.89-1.87,7.52-2.74
		c7.22-2.41,15.35-4.49,24.28-6.16c2.71-0.51,5.49-0.97,8.34-1.4c11.39-1.69,23.9-2.72,37.34-2.89c1.32-0.02,2.66-0.03,4-0.03
		c1.34,0,2.68,0.01,4,0.03c13.43,0.17,25.93,1.19,37.32,2.89c2.86,0.43,5.64,0.89,8.35,1.4c8.97,1.67,17.14,3.77,24.39,6.2
		c2.62,0.87,5.13,1.79,7.51,2.74c19.17,7.69,30.25,17.75,30.48,27.49c0.01,0.11,0.01,0.21,0.01,0.32V146.04z M196.29,184.05
		c-1.83-0.27-3.64-0.56-5.41-0.88l3.45,8.62c1.1,0.17,2.21,0.33,3.33,0.49C197.16,189.59,196.71,186.85,196.29,184.05z
		 M196.29,184.05c-1.83-0.27-3.64-0.56-5.41-0.88l3.45,8.62c1.1,0.17,2.21,0.33,3.33,0.49
		C197.16,189.59,196.71,186.85,196.29,184.05z M196.29,184.05c-1.83-0.27-3.64-0.56-5.41-0.88l3.45,8.62
		c1.1,0.17,2.21,0.33,3.33,0.49C197.16,189.59,196.71,186.85,196.29,184.05z M196.29,184.05c-1.83-0.27-3.64-0.56-5.41-0.88
		l3.45,8.62c1.1,0.17,2.21,0.33,3.33,0.49C197.16,189.59,196.71,186.85,196.29,184.05z M187.95,182.65
		c-2.19-0.41-4.33-0.84-6.42-1.3l3.54,8.82c1.37,0.28,2.75,0.53,4.15,0.77C188.75,188.23,188.33,185.46,187.95,182.65z
		 M196.29,184.05c-1.83-0.27-3.64-0.56-5.41-0.88l3.45,8.62c1.1,0.17,2.21,0.33,3.33,0.49
		C197.16,189.59,196.71,186.85,196.29,184.05z"/>
	<rect x="233.63" y="29.84" width="8" height="232.13"/>
</g>
</svg>
